<svg width="34" height="29" viewBox="0 0 34 29" fill="none" xmlns="http://www.w3.org/2000/svg">
<path d="M19.7999 0.827458C18.9355 0.286849 17.9364 0.000183105 16.9168 0.000183105C15.8972 0.000183105 14.8982 0.286849 14.0337 0.827458L0.625922 9.21095C0.436219 9.31531 0.278041 9.46872 0.16793 9.65514C0.0578195 9.84157 -0.000178987 10.0542 4.14936e-07 10.2707V20.5416C4.14936e-07 20.8621 0.127308 21.1694 0.353916 21.396C0.580524 21.6226 0.887871 21.7499 1.20834 21.7499C1.52882 21.7499 1.83616 21.6226 2.06277 21.396C2.28938 21.1694 2.41669 20.8621 2.41669 20.5416V12.4541L14.0337 19.7187C14.8982 20.2593 15.8972 20.546 16.9168 20.546C17.9364 20.546 18.9355 20.2593 19.7999 19.7187L33.2657 11.2965C33.4392 11.1879 33.5823 11.0369 33.6815 10.8577C33.7806 10.6786 33.8327 10.4772 33.8327 10.2725C33.8327 10.0677 33.7806 9.86634 33.6815 9.68721C33.5823 9.50808 33.4392 9.35709 33.2657 9.24841L19.7999 0.827458ZM20.7606 21.2557L27.7919 16.8561V23.6217C27.7917 23.9299 27.6737 24.2265 27.462 24.4506C26.1081 25.8887 24.4739 27.0344 22.6603 27.8168C20.8467 28.5992 18.892 29.0019 16.9168 29C12.7625 29 9.01424 27.2503 6.3716 24.4518C6.15993 24.2277 6.04192 23.9311 6.04172 23.6229V16.8586L13.0731 21.2545C14.2256 21.9752 15.5575 22.3573 16.9168 22.3573C18.2761 22.3573 19.608 21.9764 20.7606 21.2557Z" fill="black"/>
</svg>
