<svg width="34" height="30" viewBox="0 0 34 30" fill="none" xmlns="http://www.w3.org/2000/svg">
<path d="M31.6667 13.3333H28.3333V3.33333H30V0H3.33333V3.33333H5V13.3333H1.66667C1.22464 13.3333 0.800716 13.5089 0.488155 13.8215C0.175595 14.134 0 14.558 0 15V30H33.3333V15C33.3333 14.558 33.1577 14.134 32.8452 13.8215C32.5326 13.5089 32.1087 13.3333 31.6667 13.3333ZM20 26.6667V20H13.3333V26.6667H8.33333V3.33333H25V26.6667H20Z" fill="black"/>
<path d="M11.6667 6.66669H15V10H11.6667V6.66669ZM18.3334 6.66669H21.6667V10H18.3334V6.66669ZM11.6667 13.3334H15V16.6667H11.6667V13.3334ZM18.3334 13.3334H21.6667V16.6667H18.3334V13.3334Z" fill="black"/>
</svg>
